<mxfile host="app.diagrams.net" agent="Mozilla/5.0 (Windows NT 10.0; Win64; x64) AppleWebKit/537.36 (KHTML, like Gecko) Chrome/131.0.0.0 Safari/537.36" version="25.0.1">
  <diagram id="C5RBs43oDa-KdzZeNtuy" name="Page-1">
    <mxGraphModel dx="1050" dy="609" grid="1" gridSize="10" guides="1" tooltips="1" connect="1" arrows="1" fold="1" page="1" pageScale="1" pageWidth="827" pageHeight="1169" math="0" shadow="0">
      <root>
        <mxCell id="WIyWlLk6GJQsqaUBKTNV-0" />
        <mxCell id="WIyWlLk6GJQsqaUBKTNV-1" parent="WIyWlLk6GJQsqaUBKTNV-0" />
        <mxCell id="ae-OVRxyHDdUTy9Jdbn2-1" style="edgeStyle=orthogonalEdgeStyle;rounded=0;orthogonalLoop=1;jettySize=auto;html=1;entryX=0.5;entryY=0;entryDx=0;entryDy=0;" edge="1" parent="WIyWlLk6GJQsqaUBKTNV-1" source="ae-OVRxyHDdUTy9Jdbn2-2" target="ae-OVRxyHDdUTy9Jdbn2-4">
          <mxGeometry relative="1" as="geometry" />
        </mxCell>
        <mxCell id="ae-OVRxyHDdUTy9Jdbn2-2" value="Mulai" style="strokeWidth=2;html=1;shape=mxgraph.flowchart.terminator;whiteSpace=wrap;" vertex="1" parent="WIyWlLk6GJQsqaUBKTNV-1">
          <mxGeometry x="130" y="130" width="100" height="60" as="geometry" />
        </mxCell>
        <mxCell id="ae-OVRxyHDdUTy9Jdbn2-17" style="edgeStyle=orthogonalEdgeStyle;rounded=0;orthogonalLoop=1;jettySize=auto;html=1;entryX=0.5;entryY=0;entryDx=0;entryDy=0;" edge="1" parent="WIyWlLk6GJQsqaUBKTNV-1" source="ae-OVRxyHDdUTy9Jdbn2-4" target="ae-OVRxyHDdUTy9Jdbn2-12">
          <mxGeometry relative="1" as="geometry" />
        </mxCell>
        <mxCell id="ae-OVRxyHDdUTy9Jdbn2-4" value="Deklarasi Variabel&lt;br&gt;dan&lt;br&gt;Type Data" style="shape=hexagon;perimeter=hexagonPerimeter2;whiteSpace=wrap;html=1;fixedSize=1;" vertex="1" parent="WIyWlLk6GJQsqaUBKTNV-1">
          <mxGeometry x="120" y="230" width="120" height="80" as="geometry" />
        </mxCell>
        <mxCell id="ae-OVRxyHDdUTy9Jdbn2-18" style="edgeStyle=orthogonalEdgeStyle;rounded=0;orthogonalLoop=1;jettySize=auto;html=1;entryX=0.5;entryY=0;entryDx=0;entryDy=0;" edge="1" parent="WIyWlLk6GJQsqaUBKTNV-1" source="ae-OVRxyHDdUTy9Jdbn2-12" target="ae-OVRxyHDdUTy9Jdbn2-13">
          <mxGeometry relative="1" as="geometry" />
        </mxCell>
        <mxCell id="ae-OVRxyHDdUTy9Jdbn2-12" value="Tampilkan &lt;br&gt;&quot;Masukkan n=&quot;" style="shape=parallelogram;perimeter=parallelogramPerimeter;whiteSpace=wrap;html=1;fixedSize=1;" vertex="1" parent="WIyWlLk6GJQsqaUBKTNV-1">
          <mxGeometry x="120" y="350" width="120" height="60" as="geometry" />
        </mxCell>
        <mxCell id="ae-OVRxyHDdUTy9Jdbn2-26" style="edgeStyle=orthogonalEdgeStyle;rounded=0;orthogonalLoop=1;jettySize=auto;html=1;entryX=0.5;entryY=0;entryDx=0;entryDy=0;" edge="1" parent="WIyWlLk6GJQsqaUBKTNV-1" source="ae-OVRxyHDdUTy9Jdbn2-13" target="ae-OVRxyHDdUTy9Jdbn2-14">
          <mxGeometry relative="1" as="geometry">
            <Array as="points">
              <mxPoint x="280" y="480" />
              <mxPoint x="280" y="110" />
              <mxPoint x="430" y="110" />
            </Array>
          </mxGeometry>
        </mxCell>
        <mxCell id="ae-OVRxyHDdUTy9Jdbn2-13" value="Baca input n" style="rounded=0;whiteSpace=wrap;html=1;" vertex="1" parent="WIyWlLk6GJQsqaUBKTNV-1">
          <mxGeometry x="120" y="450" width="120" height="60" as="geometry" />
        </mxCell>
        <mxCell id="ae-OVRxyHDdUTy9Jdbn2-23" style="edgeStyle=orthogonalEdgeStyle;rounded=0;orthogonalLoop=1;jettySize=auto;html=1;entryX=0.5;entryY=0;entryDx=0;entryDy=0;" edge="1" parent="WIyWlLk6GJQsqaUBKTNV-1" source="ae-OVRxyHDdUTy9Jdbn2-14" target="ae-OVRxyHDdUTy9Jdbn2-22">
          <mxGeometry relative="1" as="geometry" />
        </mxCell>
        <mxCell id="ae-OVRxyHDdUTy9Jdbn2-14" value="i &amp;lt;= n?" style="rhombus;whiteSpace=wrap;html=1;" vertex="1" parent="WIyWlLk6GJQsqaUBKTNV-1">
          <mxGeometry x="390" y="130" width="80" height="80" as="geometry" />
        </mxCell>
        <mxCell id="ae-OVRxyHDdUTy9Jdbn2-21" style="edgeStyle=orthogonalEdgeStyle;rounded=0;orthogonalLoop=1;jettySize=auto;html=1;entryX=0.5;entryY=0;entryDx=0;entryDy=0;" edge="1" parent="WIyWlLk6GJQsqaUBKTNV-1" source="ae-OVRxyHDdUTy9Jdbn2-15" target="ae-OVRxyHDdUTy9Jdbn2-16">
          <mxGeometry relative="1" as="geometry" />
        </mxCell>
        <mxCell id="ae-OVRxyHDdUTy9Jdbn2-15" value="j &lt;span class=&quot;hljs-operator&quot;&gt;&amp;lt;=&lt;/span&gt; i?" style="rhombus;whiteSpace=wrap;html=1;" vertex="1" parent="WIyWlLk6GJQsqaUBKTNV-1">
          <mxGeometry x="390" y="345.5" width="80" height="80" as="geometry" />
        </mxCell>
        <mxCell id="ae-OVRxyHDdUTy9Jdbn2-27" style="edgeStyle=orthogonalEdgeStyle;rounded=0;orthogonalLoop=1;jettySize=auto;html=1;entryX=0;entryY=0.5;entryDx=0;entryDy=0;" edge="1" parent="WIyWlLk6GJQsqaUBKTNV-1" source="ae-OVRxyHDdUTy9Jdbn2-16" target="ae-OVRxyHDdUTy9Jdbn2-14">
          <mxGeometry relative="1" as="geometry">
            <Array as="points">
              <mxPoint x="340" y="496" />
              <mxPoint x="340" y="170" />
            </Array>
          </mxGeometry>
        </mxCell>
        <mxCell id="ae-OVRxyHDdUTy9Jdbn2-16" value="Cetak &quot;* &quot;" style="shape=parallelogram;perimeter=parallelogramPerimeter;whiteSpace=wrap;html=1;fixedSize=1;" vertex="1" parent="WIyWlLk6GJQsqaUBKTNV-1">
          <mxGeometry x="370" y="465.5" width="120" height="60" as="geometry" />
        </mxCell>
        <mxCell id="ae-OVRxyHDdUTy9Jdbn2-24" style="edgeStyle=orthogonalEdgeStyle;rounded=0;orthogonalLoop=1;jettySize=auto;html=1;entryX=0.5;entryY=0;entryDx=0;entryDy=0;" edge="1" parent="WIyWlLk6GJQsqaUBKTNV-1" source="ae-OVRxyHDdUTy9Jdbn2-22" target="ae-OVRxyHDdUTy9Jdbn2-15">
          <mxGeometry relative="1" as="geometry" />
        </mxCell>
        <mxCell id="ae-OVRxyHDdUTy9Jdbn2-22" value="Tampilkan&amp;nbsp;&lt;br&gt;baris baru (\n)" style="shape=parallelogram;perimeter=parallelogramPerimeter;whiteSpace=wrap;html=1;fixedSize=1;" vertex="1" parent="WIyWlLk6GJQsqaUBKTNV-1">
          <mxGeometry x="370" y="245.5" width="120" height="60" as="geometry" />
        </mxCell>
        <mxCell id="ae-OVRxyHDdUTy9Jdbn2-28" value="Selesai" style="strokeWidth=2;html=1;shape=mxgraph.flowchart.terminator;whiteSpace=wrap;" vertex="1" parent="WIyWlLk6GJQsqaUBKTNV-1">
          <mxGeometry x="520" y="140" width="100" height="60" as="geometry" />
        </mxCell>
        <mxCell id="ae-OVRxyHDdUTy9Jdbn2-29" style="edgeStyle=orthogonalEdgeStyle;rounded=0;orthogonalLoop=1;jettySize=auto;html=1;entryX=0;entryY=0.5;entryDx=0;entryDy=0;entryPerimeter=0;" edge="1" parent="WIyWlLk6GJQsqaUBKTNV-1" source="ae-OVRxyHDdUTy9Jdbn2-14" target="ae-OVRxyHDdUTy9Jdbn2-28">
          <mxGeometry relative="1" as="geometry" />
        </mxCell>
        <mxCell id="ae-OVRxyHDdUTy9Jdbn2-30" value="Ya" style="text;html=1;align=center;verticalAlign=middle;whiteSpace=wrap;rounded=0;" vertex="1" parent="WIyWlLk6GJQsqaUBKTNV-1">
          <mxGeometry x="414" y="210" width="60" height="30" as="geometry" />
        </mxCell>
        <mxCell id="ae-OVRxyHDdUTy9Jdbn2-31" value="Tidak" style="text;html=1;align=center;verticalAlign=middle;whiteSpace=wrap;rounded=0;" vertex="1" parent="WIyWlLk6GJQsqaUBKTNV-1">
          <mxGeometry x="460" y="140" width="60" height="30" as="geometry" />
        </mxCell>
        <mxCell id="ae-OVRxyHDdUTy9Jdbn2-32" value="Ya" style="text;html=1;align=center;verticalAlign=middle;whiteSpace=wrap;rounded=0;" vertex="1" parent="WIyWlLk6GJQsqaUBKTNV-1">
          <mxGeometry x="410" y="425.5" width="60" height="30" as="geometry" />
        </mxCell>
      </root>
    </mxGraphModel>
  </diagram>
</mxfile>
